<?xml version="1.0" standalone="no"?><!DOCTYPE svg PUBLIC "-//W3C//DTD SVG 1.1//EN" "http://www.w3.org/Graphics/SVG/1.1/DTD/svg11.dtd"><svg t="1568443803508" class="icon" viewBox="0 0 1024 1024" version="1.1" xmlns="http://www.w3.org/2000/svg" p-id="3250" width="4" height="4" xmlns:xlink="http://www.w3.org/1999/xlink"><defs><style type="text/css"></style></defs><path d="M109.714286 219.428571v731.428572h804.571428V219.428571h-804.571428zM73.142857 146.285714h877.714286a36.571429 36.571429 0 0 1 36.571428 36.571429v804.571428a36.571429 36.571429 0 0 1-36.571428 36.571429H73.142857a36.571429 36.571429 0 0 1-36.571428-36.571429v-804.571428A36.571429 36.571429 0 0 1 73.142857 146.285714z" p-id="3251" fill="#1296db"></path><path d="M36.571429 475.428571v-73.142857h903.68v73.142857zM292.571429 36.571429a36.571429 36.571429 0 0 1 73.142857 0v219.428571a36.571429 36.571429 0 0 1-73.142857 0v-219.428571zM658.285714 36.571429a36.571429 36.571429 0 0 1 73.142857 0v219.428571a36.571429 36.571429 0 1 1-73.142857 0v-219.428571z" p-id="3252" fill="#1296db"></path></svg>