<?xml version="1.0" standalone="no"?><!DOCTYPE svg PUBLIC "-//W3C//DTD SVG 1.1//EN" "http://www.w3.org/Graphics/SVG/1.1/DTD/svg11.dtd"><svg t="1568798445905" class="icon" viewBox="0 0 1024 1024" version="1.1" xmlns="http://www.w3.org/2000/svg" p-id="2887" xmlns:xlink="http://www.w3.org/1999/xlink" width="8" height="8"><defs><style type="text/css"></style></defs><path d="M274.432 102.912l-19.968-33.792c-1.536 1.024-3.584 2.048-5.12 3.072-0.512 0-0.512 0.512-1.024 0.512-0.512 0.512-1.024 0.512-1.536 1.024-0.512 0-0.512 0.512-1.024 0.512 0 0-0.512 0-0.512 0.512 0 0-0.512 0-0.512 0.512 0 0-0.512 0-0.512 0.512-0.512 0-0.512 0.512-1.024 0.512 0 0-0.512 0-0.512 0.512 0 0-0.512 0-0.512 0.512 0 0-0.512 0-0.512 0.512-0.512 0-0.512 0.512-1.024 0.512 0 0-0.512 0-0.512 0.512 0 0-0.512 0-0.512 0.512 0 0-0.512 0-0.512 0.512 0 0-0.512 0-0.512 0.512 0 0-0.512 0-0.512 0.512 0 0-0.512 0-0.512 0.512 0 0-0.512 0-0.512 0.512 0 0-0.512 0-0.512 0.512 0 0-0.512 0-0.512 0.512 0 0-0.512 0-0.512 0.512 0 0-0.512 0-0.512 0.512 0 0-0.512 0-0.512 0.512 0 0-0.512 0-0.512 0.512 0 0-0.512 0-0.512 0.512 0 0-0.512 0-0.512 0.512 0 0-0.512 0-0.512 0.512 0 0-0.512 0-0.512 0.512 0 0-0.512 0-0.512 0.512 0 0-0.512 0-0.512 0.512 0 0-0.512 0-0.512 0.512 0 0-0.512 0-0.512 0.512 0 0-0.512 0-0.512 0.512 0 0-0.512 0-0.512 0.512 0 0-0.512 0-0.512 0.512 0 0-0.512 0-0.512 0.512 0 0-0.512 0-0.512 0.512 0 0-0.512 0-0.512 0.512 0 0-0.512 0-0.512 0.512 0 0-0.512 0-0.512 0.512 0 0-0.512 0-0.512 0.512 0 0-0.512 0-0.512 0.512 0 0-0.512 0-0.512 0.512 0 0-0.512 0-0.512 0.512 0 0-0.512 0-0.512 0.512l-0.512 0.512s-0.512 0-0.512 0.512h-0.512s-0.512 0-0.512 0.512h-0.512l-0.512 0.512s-0.512 0-0.512 0.512h-0.512s-0.512 0-0.512 0.512c0 0-0.512 0-0.512 0.512 0 0-0.512 0-0.512 0.512 0 0-0.512 0-0.512 0.512h-0.512s-0.512 0-0.512 0.512c0 0-0.512 0-0.512 0.512 0 0-0.512 0-0.512 0.512 0 0-0.512 0-0.512 0.512l-0.512 0.512s-0.512 0-0.512 0.512c0 0-0.512 0-0.512 0.512 0 0-0.512 0-0.512 0.512 0 0-0.512 0-0.512 0.512l-0.512 0.512s-0.512 0-0.512 0.512c0 0-0.512 0-0.512 0.512 0 0-0.512 0-0.512 0.512 0 0-0.512 0-0.512 0.512l-0.512 0.512s-0.512 0-0.512 0.512c0 0-0.512 0-0.512 0.512 0 0-0.512 0-0.512 0.512 0 0-0.512 0-0.512 0.512 0 0-0.512 0-0.512 0.512 0 0-0.512 0-0.512 0.512 0 0-0.512 0-0.512 0.512l-0.512 0.512s-0.512 0-0.512 0.512l-0.512 0.512s-0.512 0-0.512 0.512c0 0-0.512 0-0.512 0.512 0 0-0.512 0-0.512 0.512l-0.512 0.512s-0.512 0-0.512 0.512l-0.512 0.512-0.512 0.512s-0.512 0-0.512 0.512c0 0-0.512 0-0.512 0.512 0 0-0.512 0-0.512 0.512 0 0-0.512 0-0.512 0.512 0 0-0.512 0-0.512 0.512 0 0-0.512 0-0.512 0.512l-0.512 0.512s-0.512 0-0.512 0.512c0 0-0.512 0-0.512 0.512-0.512 0-0.512 0.512-1.024 0.512l-0.512 0.512s-0.512 0-0.512 0.512c0 0-0.512 0-0.512 0.512-0.512 0-0.512 0.512-1.024 0.512l-0.512 0.512s-0.512 0-0.512 0.512c0 0-0.512 0-0.512 0.512l-0.512 0.512-0.512 0.512s-0.512 0-0.512 0.512c0 0-0.512 0-0.512 0.512l-0.512 0.512c-0.512 0.512-0.512 0.512-1.024 0.512l-0.512 0.512-1.024 1.024c-0.512 0.512-0.512 0.512-1.024 0.512-0.512 0.512-1.024 0.512-1.536 1.024-0.512 0.512-0.512 0.512-1.024 0.512l-1.024 1.024-0.512 0.512-1.024 1.024c-0.512 0.512-1.024 1.024-1.536 1.024 1.536-13.312 1.024-12.8 1.024-12.8-1.024 1.024-2.56 2.048-3.584 3.072-14.848 12.8-28.672 26.624-41.984 41.472l29.184 26.624c32.256-36.352 70.144-67.072 112.128-91.136zM39.424 511.488c0-18.944 1.024-38.4 3.584-57.344l-38.912-4.608C3.072 460.288 2.048 470.528 1.024 481.28V514.56c0 0.512 0 0 0 0V527.872c1.024 26.624 3.584 52.736 8.704 77.824l38.912-7.168c-6.656-28.16-9.216-57.856-9.216-87.04zM709.632 38.912c-7.168-3.072-14.336-5.632-21.504-8.704-0.512 0-0.512-0.512-1.024-0.512s-0.512-0.512-1.024-0.512h-0.512-1.024-0.512-0.512-0.512-0.512-0.512-0.512-0.512-0.512-0.512-0.512-0.512-0.512-0.512-0.512-0.512-0.512-0.512-0.512-0.512-0.512-0.512-0.512-0.512c-0.512 0-0.512-0.512-1.024-0.512s-0.512 0-1.024-0.512c-35.84-15.36-73.728-23.04-113.152-26.624l-3.584 39.424c48.64 4.096 95.744 15.872 140.8 34.816l14.848-36.864zM481.28 39.936L478.72 0.512c-53.76 3.584-105.472 15.36-153.088 33.792l14.336 36.864c45.056-17.92 92.672-28.16 141.312-31.232zM1008.128 384c-9.728-38.4-24.064-74.752-41.984-109.056 0-0.512-0.512-0.512-0.512-1.024s-0.512-0.512-0.512-1.024c0 0 0-0.512-0.512-0.512 0 0 0-0.512-0.512-0.512 0 0 0-0.512-0.512-0.512 0-0.512-0.512-0.512-0.512-1.024 0 0 0-0.512-0.512-0.512v-0.512s0-0.512-0.512-0.512c0 0 0-0.512-0.512-0.512v-0.512-0.512-0.512s0-0.512-0.512-0.512v-0.512s0-0.512-0.512-0.512v-0.512-0.512-0.512-0.512-0.512-0.512s0-0.512-0.512-0.512V261.12s0-0.512-0.512-0.512v-0.512s0-0.512-0.512-0.512c0-0.512-0.512-0.512-0.512-1.024-3.584-6.144-7.168-12.288-10.752-17.92l-33.28 20.992c26.112 41.472 45.056 86.016 57.344 133.12l36.352-10.752zM29.184 682.496c3.072 9.216 6.656 17.92 10.24 27.136 0 0.512 0.512 0.512 0.512 1.024 0 0 0 0.512 0.512 0.512V721.408s0 0.512 0.512 0.512c0 0.512 0.512 0.512 0.512 1.024 0 0 0 0.512 0.512 0.512 0 0 0 0.512 0.512 0.512v0.512c0 0.512 0.512 0.512 0.512 1.024s0.512 0.512 0.512 1.024c11.776 26.112 26.112 50.688 41.984 74.24 0 0.512 0.512 0.512 0.512 1.024 0.512 0.512 0.512 1.024 1.024 1.536 0.512 0.512 0.512 0.512 0.512 1.024 0 0 0 0.512 0.512 0.512 0 0 0 0.512 0.512 0.512l0.512 0.512s0 0.512 0.512 0.512c0 0 0 0.512 0.512 0.512 0 0 0 0.512 0.512 0.512 0 0 0 0.512 0.512 0.512l0.512 0.512s0 0.512 0.512 0.512c0 0 0 0.512 0.512 0.512 0 0 0 0.512 0.512 0.512 0 0 0 0.512 0.512 0.512 0 0 0 0.512 0.512 0.512l0.512 0.512s0 0.512 0.512 0.512l0.512 0.512v0.512s0 0.512 0.512 0.512v0.512l0.512 0.512v0.512l0.512 0.512 0.512 0.512v0.512s0 0.512 0.512 0.512l0.512 0.512v0.512l0.512 0.512s0 0.512 0.512 0.512l0.512 0.512v0.512l0.512 0.512 31.232-24.064c-29.696-38.912-52.736-81.92-68.608-127.488l-34.304 13.312zM117.248 251.392l-32.768-21.504c-28.672 43.52-50.688 91.648-65.536 142.848l37.888 10.752c13.312-47.104 33.792-91.648 60.416-132.096zM882.176 805.376l30.72 24.576c24.576-31.232 45.568-65.024 62.976-101.376 0-0.512 0.512-0.512 0.512-1.024 0 0 0-0.512 0.512-0.512 0-0.512 0.512-0.512 0.512-1.024 0 0 0-0.512 0.512-0.512v-0.512-0.512-0.512s0-0.512 0.512-0.512v-0.512-0.512-0.512-0.512-0.512-0.512-0.512-0.512-0.512-0.512-0.512-0.512-0.512-0.512-0.512-0.512-0.512-0.512-0.512-0.512-0.512-0.512-0.512-0.512-0.512-0.512-0.512c0-0.512 0.512-0.512 0.512-1.024s0.512-0.512 0.512-1.024v-0.512c0-0.512 0.512-1.024 0.512-1.024 0.512-1.024 1.024-2.048 1.024-3.072 1.024-3.072 2.56-6.144 3.584-9.216l-36.864-13.824c-11.264 45.056-35.328 87.552-65.536 125.44zM1024 506.368s0-0.512 0 0v-0.512-0.512-0.512-0.512-0.512-0.512-1.024-0.512-0.512-0.512-0.512-0.512-0.512-0.512-0.512-0.512-0.512-0.512c-0.512-12.288-1.024-24.576-2.048-36.352l-39.424 3.584c1.536 15.36 2.048 30.72 2.048 46.08 0 33.28-3.584 66.56-10.24 98.816l38.4 8.192v-0.512-0.512-0.512-0.512c5.632-27.648 9.216-56.32 10.24-85.504v-0.512-0.512-0.512-0.512-0.512-0.512-0.512-0.512-0.512-0.512-0.512-1.024-3.072-0.512-0.512-0.512-0.512-0.512-0.512-0.512-0.512c0-0.512 0 0 0 0v-0.512-0.512-0.512-0.512-0.512-0.512-0.512-0.512-0.512-0.512-0.512-0.512-0.512-0.512-0.512c1.024-1.024 1.024-1.024 1.024-1.536 0 0.512 0 0.512 0 0zM877.568 153.088l-1.024-1.024-0.512-0.512-0.512-0.512-0.512-0.512-0.512-0.512-0.512-0.512s-0.512 0-0.512-0.512l-0.512-0.512-0.512-0.512-0.512-0.512-0.512-0.512s-0.512 0-0.512-0.512v-0.512l-0.512-0.512v-0.512l-0.512-0.512-0.512-0.512-0.512-0.512-0.512-0.512-0.512-0.512c-0.512 0-0.512-0.512-0.512-0.512l-0.512-0.512-1.024-1.024c-0.512-0.512-0.512-0.512-1.024-0.512-26.112-24.576-54.784-47.104-85.504-66.048l-20.48 33.792c41.472 25.6 78.336 56.832 110.592 93.696l29.696-25.6c-6.656-7.168-13.824-14.848-21.504-22.528zM155.648 879.104c4.096 3.584 7.68 7.68 11.776 11.264 1.536 1.536 3.072 2.56 4.608 4.096 1.024 0.512 1.536 1.536 2.048 2.048 1.024 0.512 1.536 1.536 2.048 2.048 1.024 0.512 1.536 1.536 2.56 2.048 1.536 1.536 3.072 2.56 4.608 4.096 1.024 0.512 1.536 1.024 2.56 2.048 29.696 24.576 62.464 46.08 97.792 63.488l17.408-35.328c-43.52-21.504-83.456-49.664-118.272-83.456l-27.136 27.648zM712.192 939.52l16.896 35.84c2.56-1.024 5.12-2.56 7.68-3.584 0.512 0 0.512-0.512 1.024-0.512s0.512-0.512 1.024-0.512c0 0 0.512 0 0.512-0.512 0 0 0.512 0 0.512-0.512 0 0 0.512 0 0.512-0.512 0 0 0.512 0 0.512-0.512h0.512s0.512 0 0.512-0.512h1.024s0.512 0 0.512-0.512c0 0 0.512 0 0.512-0.512h2.56s0.512 0 0.512-0.512H758.784s0.512 0 0.512-0.512h0.512s0.512 0 0.512-0.512c0.512 0 0.512-0.512 1.024-0.512l0.512-0.512h0.512s0.512 0 0.512-0.512c0.512 0 0.512-0.512 1.024-0.512s0.512-0.512 0.512-0.512c0.512 0 0.512-0.512 1.024-0.512s0.512-0.512 1.024-0.512c0.512-0.512 1.024-0.512 1.536-1.024 0.512 0 0.512-0.512 1.024-0.512 32.768-18.944 63.488-41.472 91.136-67.072l-26.624-28.672c-36.864 27.136-77.312 54.272-121.344 74.752zM512 984.064c-49.152 0-97.28-7.168-143.36-22.016l-11.776 37.376c16.384 5.12 33.792 9.728 50.688 13.312 1.024 0 2.048 0.512 3.072 0.512h0.512c0.512 0 1.024 0 1.024 0.512H551.424c33.28-3.072 66.048-9.216 97.28-18.432l-11.264-37.888c-35.84 20.48-80.384 26.624-125.44 26.624zM243.2 792.576h537.6v-43.52h-246.272v-149.504h193.024v-43.008H295.936v43.008h192.512v149.504H243.2zM570.368 379.904l-24.064 35.84c61.952 28.16 121.344 66.048 179.2 113.664l25.6-38.4c-54.784-44.032-114.688-80.896-180.736-111.104zM438.784 384c-46.08 42.496-104.448 76.288-174.592 101.888l19.456 41.472c72.704-29.184 133.632-66.56 183.296-111.104L438.784 384z" p-id="2888" fill="#09bb07"></path><path d="M491.52 297.984H244.224v125.952h46.08V339.968h442.88v84.48h46.08V297.984h-241.152c-7.168-22.528-15.36-44.544-24.064-66.048l-49.152 7.68c9.728 17.408 18.432 36.864 26.624 58.368z" p-id="2889" fill="#09bb07"></path></svg>