<?xml version="1.0" standalone="no"?><!DOCTYPE svg PUBLIC "-//W3C//DTD SVG 1.1//EN" "http://www.w3.org/Graphics/SVG/1.1/DTD/svg11.dtd"><svg t="1568798390116" class="icon" viewBox="0 0 1024 1024" version="1.1" xmlns="http://www.w3.org/2000/svg" p-id="2520" xmlns:xlink="http://www.w3.org/1999/xlink" width="8" height="8"><defs><style type="text/css"></style></defs><path d="M510 105c54.695 0 107.729 10.702 157.631 31.808 48.222 20.396 91.539 49.604 128.748 86.813 37.209 37.209 66.417 80.526 86.813 128.748C904.298 402.271 915 455.305 915 510c0 54.695-10.702 107.73-31.808 157.631-20.396 48.222-49.604 91.539-86.813 128.748-37.209 37.209-80.526 66.417-128.748 86.813-49.901 21.106-102.936 31.808-157.631 31.808-54.695 0-107.729-10.702-157.63-31.808-48.222-20.396-91.539-49.604-128.748-86.813-37.209-37.209-66.417-80.526-86.813-128.748C115.702 617.73 105 564.695 105 510c0-54.694 10.702-107.729 31.808-157.63 20.396-48.222 49.604-91.539 86.813-128.748 37.209-37.209 80.526-66.417 128.748-86.813C402.271 115.702 455.306 105 510 105m0-45c-248.528 0-450 201.472-450 450 0 248.53 201.472 450 450 450 248.529 0 450-201.47 450-450 0-248.528-201.471-450-450-450z" p-id="2521" fill="#09bb07"></path></svg>