<?xml version="1.0" standalone="no"?><!DOCTYPE svg PUBLIC "-//W3C//DTD SVG 1.1//EN" "http://www.w3.org/Graphics/SVG/1.1/DTD/svg11.dtd"><svg t="1568798456694" class="icon" viewBox="0 0 1024 1024" version="1.1" xmlns="http://www.w3.org/2000/svg" p-id="3063" width="8" height="8" xmlns:xlink="http://www.w3.org/1999/xlink"><defs><style type="text/css"></style></defs><path d="M512 1013.333333C788.878754 1013.333333 1013.333333 788.878754 1013.333333 512 1013.333333 235.121246 788.878754 10.666667 512 10.666667 235.121246 10.666667 10.666667 235.121246 10.666667 512 10.666667 788.878754 235.121246 1013.333333 512 1013.333333L512 1013.333333ZM512 992C246.903319 992 32 777.096681 32 512 32 246.903319 246.903319 32 512 32 777.096681 32 992 246.903319 992 512 992 777.096681 777.096681 992 512 992L512 992Z" p-id="3064" fill="#09bb07"></path><path d="M478 274.666667C499.33344 289.333406 518.666579 304.666588 536 320.666667 537.33334 320.666667 532.66672 332.666547 522 356.666667L518 356.666667C508.66662 335.333227 494.0001 309.333487 474 278.666667L478 274.666667ZM700 366.666667 698 368.666667C684.666601 380.666726 663.333481 405.333146 634 442.666667L628 440.666667C634.666701 425.999927 641.999959 410.666746 650 394.666667 654.000019 385.333286 657.333321 378.000026 660 372.666667 477.33242 386.000066 379.333399 393.999987 366 396.666667 360.666641 435.333527 351.333399 460.666607 338 472.666667 333.999981 469.999987 330.000019 458.666767 326 438.666667 326 437.333327 327.333321 436.000006 330 434.666667 346.000079 419.999927 354.66666 388.666906 356 340.666667L362 340.666667 368 378.666667C392.000119 378.666667 486.665841 371.333406 652 356.666667 656.000019 355.333327 660.666641 350.666707 666 342.666667 668.666679 339.999987 670 338.666667 670 338.666667 678.000041 342.666686 687.99994 351.999927 700 366.666667ZM478 412.666667C488.66672 431.333427 494 441.999987 494 444.666667 494 446.000006 492.666679 447.999987 490 450.666667 484.666641 453.333346 479.333359 457.333308 474 462.666667 468.666641 468.000028 459.333399 476.666607 446 488.666667 404.66646 528.666867 369.333481 557.333246 340 574.666667L338 568.666667C419.333741 500.666327 463.999959 448.666846 472 412.666667 473.33334 411.333327 474.66666 411.333327 476 412.666667L478 412.666667 478 412.666667ZM538 422.666667C570.00016 441.333427 603.999821 461.999887 640 484.666667 649.33338 490.000026 655.999981 493.999987 660 496.666667 666.666701 511.333406 668.666679 527.999906 666 546.666667 664.66666 546.666667 660.666701 543.333367 654 536.666667 621.99984 501.999827 582.000239 466.666846 534 430.666667L538 422.666667ZM604 542.666667C617.333399 550.666707 624 557.333308 624 562.666667 586.666479 562.666667 553.333481 565.333308 524 570.666667L522 688.666667C582.000301 685.999987 629.333161 682.000026 664 676.666667 672.000041 675.333327 676.66666 674.666667 678 674.666667 696.666761 684.000047 706 691.333308 706 696.666667 536.66582 702.000026 420.66698 708.666626 358 716.666667L348 716.666667C339.999959 712.666647 331.33338 706.000047 322 696.666667 330.000041 696.666667 350.6665 696.000006 384 694.666667 437.3336 693.333327 477.333199 692.000006 504 690.666667L504 572.666667C487.999921 574.000006 464.00016 576.666647 432 580.666667 418.666601 583.333346 411.33334 584.666667 410 584.666667 397.99994 580.666647 391.33334 574.666707 390 566.666667 471.333741 561.333308 537.333079 554.000047 588 544.666667 597.33338 543.333327 602.66666 542.666667 604 542.666667L604 542.666667Z" p-id="3065" fill="#09bb07"></path></svg>