<?xml version="1.0" standalone="no"?><!DOCTYPE svg PUBLIC "-//W3C//DTD SVG 1.1//EN" "http://www.w3.org/Graphics/SVG/1.1/DTD/svg11.dtd"><svg t="1568020988774" class="icon" viewBox="0 0 1024 1024" version="1.1" xmlns="http://www.w3.org/2000/svg" p-id="3983" width="4" height="4" xmlns:xlink="http://www.w3.org/1999/xlink"><defs><style type="text/css"></style></defs><path d="M512.8 2C377.90000001 2 248.49999998 55.6 153.09999999 151 57.8 246.4 4.20000001 375.69999999 4.20000001 510.6c0 281 227.6 508.6 508.59999999 508.59999999 280.90000001 0 508.6-227.70000001 508.6-508.59999999C1021.4 229.69999999 793.70000001 2 512.8 2z m-14.70000002 804.10000001c-22.70000001-0.2-41-18.69999999-40.89999998-41.4 0-23 18.30000001-41.6 40.90000001-41.6 22.50000003 0 40.90000001 18.6 40.89999999 41.49999999s-18.4 41.50000001-40.89999999 41.50000001z m171.10000002-364.80000002c-11.90000001 21.50000001-35.30000001 47.4-70 78.30000001-23.30000002 20.80000001-38.50000001 36-45.70000001 45.70000001-7.2 9.90000001-12.50000001 21.10000001-15.8 33.8-3.4 15.30000001-5.30000001 30.90000001-5.49999999 46.49999999 2.70000001 10.50000001 0.30000001 21.6-6.4 30.10000001S508.89999999 689.10000002 498 689c-16.70000001 0.10000001-31.10000001-11.6-34.50000002-27.90000001h-0.59999997c-0.2-7.10000001-0.40000001-14.30000001-0.4-21.39999998 0-28.10000001 3.90000001-52.29999999 11.89999999-72.70000001 5.8-15.50000001 15.30000001-31 28.2-46.49999999 9.6-11.50000001 26.70000002-28.10000001 51.4-50.00000002 24.70000001-21.80000001 40.90000001-39.2 48.30000001-52.2 7.50000002-13.10000001 11.10000001-27.20000001 11.09999999-42.7 0-27.8-10.90000001-52.2-32.60000001-73.19999998-21.2-20.90000001-50-32.30000001-79.79999999-31.60000001-30.50000001 0-55.90000001 9.50000001-76.30000001 28.6-19.50000001 18.2-32.6 46.30000001-39.19999997 84.10000001-0.6 20.2-17.19999999 36.2-37.40000001 36.09999999-11.70000001 0.10000001-22.8-5.4-29.90000001-14.79999999-7.10000001-9.4-9.30000001-21.50000001-6-32.80000001 7.50000002-50.50000001 26.8-89.4 57.90000001-116.8 32.70000001-28.8 76-43.30000001 129.69999999-43.30000001 57 0 102.50000001 15.50000001 136.40000001 46.50000001 33.90000001 31 50.90000001 68.39999999 50.9 112.4 0 25.60000001-6 49-17.90000001 70.49999999z m0 3e-8" fill="#bfbfbf" p-id="3984"></path></svg>