<?xml version="1.0" standalone="no"?><!DOCTYPE svg PUBLIC "-//W3C//DTD SVG 1.1//EN" "http://www.w3.org/Graphics/SVG/1.1/DTD/svg11.dtd"><svg t="1568020053762" class="icon" viewBox="0 0 1024 1024" version="1.1" xmlns="http://www.w3.org/2000/svg" p-id="4677" xmlns:xlink="http://www.w3.org/1999/xlink" width="4" height="4"><defs><style type="text/css"></style></defs><path d="M73.506 964.030h438.495v-876.967h-438.495v876.967zM344.137 195.507h109.622v109.617h-109.622v-109.617zM344.137 415.925h109.622v109.617h-109.622v-109.617zM344.137 633.98h109.622v109.632h-109.622v-109.632zM128.319 195.507h109.622v109.617h-109.622v-109.617zM128.319 415.925h109.622v109.617h-109.622v-109.617zM128.319 633.98h109.622v109.632h-109.622v-109.632zM566.812 364.781h383.683v50.231h-383.683v-50.231zM566.812 964.030h109.622v-191.806h164.441v191.807h109.622v-488.698h-383.683v488.694zM566.812 964.030z" p-id="4678" fill="#1296db"></path></svg>