<?xml version="1.0" standalone="no"?><!DOCTYPE svg PUBLIC "-//W3C//DTD SVG 1.1//EN" "http://www.w3.org/Graphics/SVG/1.1/DTD/svg11.dtd"><svg t="1568910274180" class="icon" viewBox="0 0 1024 1024" version="1.1" xmlns="http://www.w3.org/2000/svg" p-id="4193" width="8" height="8" xmlns:xlink="http://www.w3.org/1999/xlink"><defs><style type="text/css"></style></defs><path d="M593.453383 315.17138c-37.145198-37.145198-86.569801-57.610872-139.166584-57.610872-52.596782 0-102.021385 20.465674-139.166583 57.610872s-57.610872 86.569801-57.610873 139.166583c0 52.596782 20.465674 102.021385 57.610873 139.166584s86.569801 57.610872 139.166583 57.610872 102.021385-20.465674 139.166584-57.610872c76.746278-76.746278 76.746278-201.586889 0-278.333167z m-27.424004 250.806835c-29.879884 29.777556-69.480963 46.252423-111.74258 46.252424s-81.862696-16.474868-111.74258-46.252424c-29.879884-29.879884-46.252423-69.480963-46.252423-111.74258s16.474868-81.862696 46.252423-111.74258c29.879884-29.777556 69.480963-46.252423 111.74258-46.252423s81.862696 16.474868 111.74258 46.252423c61.601679 61.704007 61.601679 161.883482 0 223.48516z m194.730889 167.409214l-108.468073-108.468073c-7.572299-7.572299-19.851704-7.572299-27.424003 0-7.572299 7.572299-7.572299 19.851704 0 27.424004l108.468073 108.468072c3.78615 3.78615 8.80024 5.730389 13.712001 5.730389 4.911762 0 9.925852-1.944239 13.712002-5.730389 7.674628-7.572299 7.674628-19.851704 0-27.424003z" fill="#b2b2b2" p-id="4194"></path></svg>