<?xml version="1.0" standalone="no"?><!DOCTYPE svg PUBLIC "-//W3C//DTD SVG 1.1//EN" "http://www.w3.org/Graphics/SVG/1.1/DTD/svg11.dtd"><svg t="1568445955555" class="icon" viewBox="0 0 1024 1024" version="1.1" xmlns="http://www.w3.org/2000/svg" p-id="8254" width="4" height="4" xmlns:xlink="http://www.w3.org/1999/xlink"><defs><style type="text/css"></style></defs><path d="M511.1 282c-106 0-191.9 85.9-191.9 191.9s85.9 191.9 191.9 191.9S703 579.9 703 473.9 617.1 282 511.1 282z m0 324.5c-73.2 0-132.5-59.3-132.5-132.5s59.3-132.5 132.5-132.5S643.6 400.8 643.6 474s-59.3 132.5-132.5 132.5z" p-id="8255" fill="#1296db"></path><path d="M951 456.3c-2-2.8-49.4-70.4-126.3-138.7-45.5-40.5-92.1-72.8-138.3-96.1-59.1-29.8-118-44.9-175-44.9h-1.2c-57 0-115.9 15.1-175 44.9-46.2 23.3-92.8 55.6-138.3 96.1-34.7 30.8-63.4 61.5-84.6 86.1l-0.1 0.1c-17.7 20.5-30.2 36.8-36.6 45.6l-0.1 0.1c-0.5 0.7-1 1.4-1.5 2 0 0.1-0.1 0.1-0.1 0.2-0.4 0.6-0.8 1.1-1.1 1.5-0.1 0.1-0.1 0.2-0.2 0.3-0.3 0.4-0.5 0.8-0.8 1.1-0.1 0.1-0.1 0.2-0.2 0.3-0.2 0.2-0.3 0.4-0.4 0.6-0.3 0.4-0.5 0.7-0.6 0.8-1.6 2.4-2.9 4.9-3.8 7.5-0.3 0.9-0.6 1.9-0.8 2.8v0.1c-0.5 2.1-0.7 4.3-0.7 6.5v0.5c0 2.1 0.3 4.1 0.7 6.1v0.2c0.8 3.6 2.3 7 4.5 10.2 1.4 2 24.6 35.1 64.4 78 15.8 17 34.1 35.5 54.7 54.3 2.3 2.1 4.7 4.3 7.1 6.4 2.6 2.3 5.2 4.6 7.9 6.9 1.8 1.6 3.6 3.1 5.5 4.7l2.1 1.8c2.3 2 4.7 3.9 7 5.8 0.1 0.1 0.3 0.2 0.4 0.3 2.5 2 5 4.1 7.5 6.1 35.8 28.7 71.9 52.3 108 70.4 41 20.6 81.8 34.2 122 40.6v0.1c1.3 0.2 2.6 0.3 3.9 0.5 1.9 0.3 3.9 0.6 5.8 0.8 2.2 0.3 4.4 0.6 6.5 0.8 1.6 0.2 3.2 0.3 4.8 0.5 8.8 0.9 17.5 1.4 26.2 1.5 0.7 0 1.4 0 2 0.1 1.2 0 2.5 0.1 3.7 0.1 57 0 115.9-15.1 175-44.9 36.2-18.3 72.7-42.1 108.6-71l0.5 0.5c10.2-8.1 20.3-16.7 30.4-25.6C901.6 560.6 949 493 951 490.2c7.1-10.2 7.1-23.8 0-33.9zM784.4 585.4c-3.5 3.1-7.1 6.2-10.8 9.3l-1-0.2c-64.5 55-159.4 116-262.4 116-1.2 0-2.5 0-3.7-0.1-90.9-1.3-175.3-49.7-237.7-98.7-2.4-1.9-4.7-3.7-7-5.6-0.8-0.7-1.7-1.4-2.5-2l-5.1-4.2c-0.9-0.7-1.8-1.5-2.7-2.2-1.7-1.4-3.3-2.8-4.9-4.2l-2.4-2.1c-2.2-1.9-4.3-3.8-6.4-5.6-0.2-0.1-0.3-0.3-0.5-0.4-49.8-44-86.9-88.6-105.2-112.1 1.1-1.4 2.3-2.9 3.5-4.5 0.1-0.1 0.2-0.3 0.3-0.4 2.4-3 5-6.3 7.9-9.7 0.4-0.5 0.8-1 1.3-1.6 1-1.2 2.1-2.5 3.2-3.8 0.7-0.8 1.3-1.6 2-2.4l3.3-3.9c0.8-0.9 1.6-1.9 2.4-2.8 0.7-0.9 1.5-1.7 2.2-2.6 1.6-1.8 3.2-3.7 4.9-5.6 0.6-0.7 1.2-1.4 1.9-2.1 1.1-1.2 2.2-2.5 3.3-3.8 0.6-0.6 1.2-1.3 1.8-1.9 2.3-2.5 4.6-5.1 7-7.6 0.4-0.4 0.7-0.8 1.1-1.2l3.9-4.2c0.6-0.7 1.3-1.3 1.9-2 2.3-2.4 4.7-4.9 7.1-7.4 13.8-14.3 29.3-29.4 46.3-44.5 64.5-57.1 164.2-125.1 273-125.1 1.5 0 2.9 0 4.4 0.1 1.2 0 2.4 0 3.6 0.1 36.3 1.1 71.6 9.7 104.8 22.7l0.3-0.3c63.6 24.8 119.6 66 161 102.6 49.8 44 86.9 88.6 105.2 112.1-18.4 23.2-55.6 67.8-105.3 111.9z" p-id="8256" fill="#1296db"></path></svg>