<?xml version="1.0" standalone="no"?><!DOCTYPE svg PUBLIC "-//W3C//DTD SVG 1.1//EN" "http://www.w3.org/Graphics/SVG/1.1/DTD/svg11.dtd"><svg t="1568797445127" class="icon" viewBox="0 0 1024 1024" version="1.1" xmlns="http://www.w3.org/2000/svg" p-id="2019" width="8" height="8" xmlns:xlink="http://www.w3.org/1999/xlink"><defs><style type="text/css"></style></defs><path d="M743.385 912.771c-221.342 127.79-504.366 51.955-632.156-169.386-127.79-221.342-51.955-504.366 169.386-632.156 221.342-127.79 504.366-51.955 632.156 169.386 127.79 221.342 51.955 504.366-169.386 632.156z m-9.847-17.053c211.923-122.355 284.528-393.334 162.18-605.256C773.363 78.539 502.384 5.934 290.462 128.282 78.539 250.637 5.934 521.616 128.282 733.538c122.355 211.923 393.334 284.528 605.256 162.18z m-15.255-32.906l-6.564-11.37a416.279 416.279 0 0 0 11.094-6.649l6.925 11.153a425.92 425.92 0 0 1-11.455 6.866z m33.642-21.681l-7.648-10.674a385.337 385.337 0 0 0 10.378-7.693l7.995 10.411a397.269 397.269 0 0 1-10.725 7.956z m31.428-24.964l-8.664-9.865a385.35 385.35 0 0 0 9.544-8.678l8.993 9.57a426.577 426.577 0 0 1-9.873 8.973z m28.692-27.89l-9.603-8.94c2.927-3.152 5.81-6.348 8.632-9.59l9.898 8.618a398.607 398.607 0 0 1-8.927 9.912z m25.863-30.727l-10.45-7.943a380.66 380.66 0 0 0 7.627-10.404l10.713 7.588a401.408 401.408 0 0 1-7.884 10.759z m22.626-33.103l-11.192-6.86a394.841 394.841 0 0 0 6.564-11.119l11.415 6.479a403.175 403.175 0 0 1-6.787 11.5z m19.135-35.006l-11.816-5.718A403.539 403.539 0 0 0 873.295 672l11.999 5.323a405.517 405.517 0 0 1-5.625 12.118z m15.688-36.976l-12.328-4.516a388.074 388.074 0 0 0 4.247-12.19l12.472 4.116a405.93 405.93 0 0 1-4.391 12.59z m11.966-38.38l-12.715-3.282a379.796 379.796 0 0 0 3.02-12.564l12.82 2.862a406.14 406.14 0 0 1-3.125 12.984z m8.107-39.385l-12.97-2.015a396.346 396.346 0 0 0 1.765-12.787l13.03 1.582a405.432 405.432 0 0 1-1.825 13.214z m4.168-39.896l-13.109-0.716c0.23-4.3 0.394-8.599 0.486-12.905l13.128 0.276c-0.098 4.45-0.262 8.9-0.505 13.345z m0.217-39.516l-13.116 0.577a389.067 389.067 0 0 0-0.78-12.891l13.095-1.005c0.341 4.438 0.604 8.881 0.8 13.325z m-3.749-39.962l-12.996 1.877a387.715 387.715 0 0 0-2.055-12.754l12.918-2.304a387.864 387.864 0 0 1 2.133 13.18z m-7.719-39.385l-12.74 3.177a387.545 387.545 0 0 0-3.329-12.478l12.63-3.591c1.22 4.28 2.363 8.58 3.44 12.898z m-11.645-38.46l-12.36 4.432a389.448 389.448 0 0 0-4.549-12.078l12.21-4.838a408.582 408.582 0 0 1 4.7 12.485z m-15.412-37.106l-11.861 5.639a394.24 394.24 0 0 0-5.73-11.573l11.663-6.02a421.026 421.026 0 0 1 5.928 11.954z m-18.997-35.38l-11.25 6.76a396.373 396.373 0 0 0-6.847-10.962l11.028-7.135a431.573 431.573 0 0 1 7.07 11.33z m-22.285-33.241l-10.529 7.837a390.577 390.577 0 0 0-7.877-10.22l10.273-8.179a403.692 403.692 0 0 1 8.14 10.562z m-25.56-30.996l-9.702 8.849a387.873 387.873 0 0 0-8.849-9.38l9.4-9.164a412.308 412.308 0 0 1 9.15 9.695z m-28.403-28.16l-8.763 9.768a387.499 387.499 0 0 0-9.748-8.455l8.441-10.056c3.4 2.855 6.761 5.776 10.07 8.743zM754.839 187.3l-7.746 10.601a388.575 388.575 0 0 0-10.542-7.437l7.392-10.85a392.29 392.29 0 0 1 10.896 7.686z m-33.34-21.904l-6.655 11.31a390.288 390.288 0 0 0-11.231-6.361l6.275-11.527a396.62 396.62 0 0 1 11.618 6.578z m-35.51-18.59l-5.508 11.92a391.903 391.903 0 0 0-11.816-5.224l5.114-12.092a420.343 420.343 0 0 1 12.21 5.396z m-37.278-15.019l-4.293 12.407a392.9 392.9 0 0 0-12.262-4.024l3.886-12.538a407.828 407.828 0 0 1 12.669 4.155z m-38.597-11.257l-3.046 12.767a392.96 392.96 0 0 0-12.603-2.79l2.625-12.865c4.359 0.893 8.704 1.857 13.03 2.888z m-39.536-7.391l-1.772 13.01c-4.26-0.584-8.534-1.09-12.807-1.53l1.34-13.062c4.423 0.46 8.835 0.985 13.24 1.582z m-39.752-3.427l-0.48 13.122a390.492 390.492 0 0 0-12.904-0.263l0.046-13.128a430.5 430.5 0 0 1 13.338 0.27z m-39.7 0.506l0.814 13.102c-4.3 0.262-8.592 0.604-12.879 1.01l-1.247-13.062c4.43-0.427 8.868-0.774 13.312-1.05zM451.25 114.7l2.114 12.958c-4.247 0.689-8.48 1.457-12.708 2.297l-2.547-12.885a400.693 400.693 0 0 1 13.141-2.37z m-39.266 8.455l3.4 12.682a392.15 392.15 0 0 0-12.406 3.55l-3.827-12.556c4.26-1.3 8.533-2.521 12.833-3.676z m-38.23 12.347l4.654 12.275a376.677 376.677 0 0 0-11.992 4.778l-5.055-12.117a403.22 403.22 0 0 1 12.393-4.936z m-36.791 16.082l5.842 11.75a412.021 412.021 0 0 0-11.461 5.947l-6.236-11.553a405.543 405.543 0 0 1 11.855-6.144z m-35.033 19.626l6.971 11.127a395.028 395.028 0 0 0-10.837 7.036l-7.332-10.896a408.156 408.156 0 0 1 11.198-7.267z m-32.84 22.89l8.028 10.39a395.51 395.51 0 0 0-10.083 8.061l-8.369-10.109a386.213 386.213 0 0 1 10.424-8.336z m-30.55 26.157l9.033 9.532a374.798 374.798 0 0 0-9.23 9.038l-9.34-9.222a388.27 388.27 0 0 1 9.537-9.348z m-27.595 28.883l9.931 8.579a387.61 387.61 0 0 0-8.27 9.898l-10.207-8.25a400.738 400.738 0 0 1 8.546-10.234z m-24.747 31.704l10.746 7.549a391.706 391.706 0 0 0-7.247 10.693l-10.988-7.188a393.508 393.508 0 0 1 7.496-11.054z m-21.26 33.694l11.434 6.452a390.61 390.61 0 0 0-6.157 11.356l-11.638-6.072a389.819 389.819 0 0 1 6.367-11.736z m-17.954 35.892l12.02 5.284A386.732 386.732 0 0 0 154 367.63l-12.19-4.89a420.27 420.27 0 0 1 5.173-12.308z m-14.322 37.527l12.484 4.07a382.735 382.735 0 0 0-3.807 12.34l-12.603-3.656a406.121 406.121 0 0 1 3.926-12.754z m-10.556 38.794l12.827 2.81a393.227 393.227 0 0 0-2.56 12.668l-12.912-2.396a405.99 405.99 0 0 1 2.645-13.089z m-6.669 39.673l13.043 1.536a391.811 391.811 0 0 0-1.293 12.846l-13.082-1.102c0.367-4.431 0.814-8.862 1.332-13.28z m-2.691 39.766l13.128 0.243a390.17 390.17 0 0 0-0.026 12.911l-13.128 0.197a403.298 403.298 0 0 1 0.026-13.351z m1.234 39.726l13.082-1.05c0.348 4.286 0.768 8.566 1.254 12.839l-13.043 1.49a401.611 401.611 0 0 1-1.293-13.28z m5.219 39.778l12.911-2.363a400.122 400.122 0 0 0 2.527 12.669l-12.826 2.783a400.594 400.594 0 0 1-2.612-13.095z m9.17 39.07l12.616-3.637a371.173 371.173 0 0 0 3.78 12.34l-12.484 4.057a401.093 401.093 0 0 1-3.912-12.76z m13.062 38.026l12.183-4.884a383.623 383.623 0 0 0 4.995 11.907l-12.018 5.278a403.968 403.968 0 0 1-5.166-12.301z m16.758 36.503l11.645-6.06a395.66 395.66 0 0 0 6.144 11.357l-11.441 6.433a410.033 410.033 0 0 1-6.348-11.73z m20.218 34.612l10.995-7.168a396.846 396.846 0 0 0 7.233 10.706l-10.765 7.523a406.942 406.942 0 0 1-7.463-11.06z m23.519 32.473l10.24-8.225a373.906 373.906 0 0 0 8.251 9.938l-9.958 8.56a402.366 402.366 0 0 1-8.533-10.273z m26.585 29.919l9.367-9.196a398.719 398.719 0 0 0 9.196 9.058l-9.059 9.505a399.514 399.514 0 0 1-9.504-9.367z m29.512 27.188l8.402-10.089a371.688 371.688 0 0 0 10.063 8.1l-8.061 10.365a400.903 400.903 0 0 1-10.404-8.376z m32.17 24.163l7.352-10.877a389.186 389.186 0 0 0 10.811 7.043l-6.984 11.113a402.2 402.2 0 0 1-11.179-7.28z m34.042 20.618l6.236-11.553a403.546 403.546 0 0 0 11.467 5.953l-5.855 11.75a404.06 404.06 0 0 1-11.848-6.15z m36.227 17.303l5.061-12.118a411.315 411.315 0 0 0 12 4.792l-4.661 12.268a405.49 405.49 0 0 1-12.406-4.942z m37.803 13.64l3.84-12.55a387.54 387.54 0 0 0 12.406 3.57l-3.427 12.675a406.16 406.16 0 0 1-12.82-3.695z m38.977 9.846l2.58-12.872a392.73 392.73 0 0 0 12.702 2.33l-2.16 12.951a405.865 405.865 0 0 1-13.128-2.409z m39.812 5.947l1.286-13.062c4.287 0.42 8.58 0.768 12.872 1.05l-0.853 13.102a404.677 404.677 0 0 1-13.305-1.09z m39.378 1.956l0.013-13.128c4.3 0.007 8.605-0.066 12.911-0.197l0.42 13.122c-4.45 0.138-8.894 0.21-13.344 0.203z m40.087-1.962l-1.3-13.063c4.28-0.427 8.56-0.919 12.826-1.484l1.727 13.01c-4.411 0.591-8.83 1.103-13.26 1.537z m39.693-5.954l-2.593-12.866a396.02 396.02 0 0 0 12.61-2.763l3.02 12.773a400.542 400.542 0 0 1-13.037 2.856z m38.905-9.899l-3.873-12.537a399.874 399.874 0 0 0 12.275-4.017l4.287 12.406a376.52 376.52 0 0 1-12.689 4.148z m37.744-13.738l-5.107-12.098a393.413 393.413 0 0 0 11.815-5.212l5.501 11.92a400.94 400.94 0 0 1-12.21 5.383z m36.214-17.435l-6.275-11.533a406.835 406.835 0 0 0 8.874-4.969l6.565 11.37a406.399 406.399 0 0 1-9.164 5.132zM451.48 740.208l3.853-12.551c58.913 18.11 122.769 11.395 177.211-20.034A222.379 222.379 0 0 0 735.626 575.37l12.63 3.59a235.507 235.507 0 0 1-109.149 140.032c-57.633 33.274-125.262 40.383-187.628 21.216z m120.372-456.626l-2.822 12.82a222.313 222.313 0 0 0-159.665 24.661 222.411 222.411 0 0 0-103.76 134.663l-12.668-3.453A235.533 235.533 0 0 1 402.8 309.701a235.435 235.435 0 0 1 169.051-26.119z m-180.02 300.846l-112.784 65.116 28.882 50.025c3.99 6.912 9.445 8.376 16.357 4.385l90.775-52.408a15.59 15.59 0 0 0 7.024-8.421c1.332-4.412-3.15-16.378-13.089-36.103l20.073-4.313c11.048 24.182 15.833 39.608 14.428 46.002-2.055 6.518-6.617 12.064-13.863 16.738l-100.418 57.968c-15.458 8.927-27.72 5.336-36.962-10.674l-54.614-94.588 17.46-10.09 14.39 24.925 95.14-54.929-24.997-43.297-120.057 69.317-9.558-16.548L347.72 508.03l44.111 76.4z m55.552-145.342l17.1-9.872 16.173 28.015 75.855-43.796 9.452 16.371L490.11 473.6l18.484 32.013 62.215-35.919 52.723 91.32-17.1 9.873-6.301-10.91-94.59 54.613 6.4 11.094-17.099 9.872-52.827-91.503 49.48-28.567-44.111-76.4z m48.706 159.127l94.588-54.613-27.411-47.479-94.59 54.614 27.406 47.478zM632.3 420.365l16.07 27.832 41.839-24.156-16.07-27.832-41.839 24.156z m24.406 44.367c11.047 24.175 15.241 46.986 12.576 68.411l-20.105-4.155c1.877-21.95-3.926-45.03-17.428-69.251l-51.463-89.14 139.527-80.556 79.084 136.98c7.877 13.647 4.772 24.655-9.058 32.637l-20.913 12.078-14.317-14.297a300.931 300.931 0 0 0 20.349-10.535c5.822-3.361 6.82-8.783 2.724-15.885l-15.649-27.097-45.115 26.046 29.932 51.844-17.46 10.082-29.932-51.843-42.752 24.68z m96.085-76.82l-16.069-27.832-45.115 26.047 16.069 27.832 45.115-26.047z m-25.206-43.658l-15.754-27.287-45.115 26.047L682.47 370.3l45.115-26.047z m-78.33 8.842l-41.84 24.156 15.755 27.287 41.84-24.156-15.755-27.287z" p-id="2020" fill="#2c2c2c"></path></svg>